<?xml version="1.0" encoding="UTF-8" standalone="no"?>
<!-- Created with Inkscape (http://www.inkscape.org/) -->

<svg
   width="297mm"
   height="210mm"
   viewBox="0 0 297 210"
   version="1.1"
   id="svg1"
   xml:space="preserve"
   inkscape:version="1.4.2 (ebf0e940d0, 2025-05-08)"
   sodipodi:docname="ep6.svg"
   inkscape:export-filename="Wallpapers/flcl.png"
   inkscape:export-xdpi="328.40405"
   inkscape:export-ydpi="328.40405"
   xmlns:inkscape="http://www.inkscape.org/namespaces/inkscape"
   xmlns:sodipodi="http://sodipodi.sourceforge.net/DTD/sodipodi-0.dtd"
   xmlns="http://www.w3.org/2000/svg"
   xmlns:svg="http://www.w3.org/2000/svg"><sodipodi:namedview
     id="namedview1"
     pagecolor="#5f638b"
     bordercolor="#000000"
     borderopacity="0.25"
     inkscape:showpageshadow="2"
     inkscape:pageopacity="0.0"
     inkscape:pagecheckerboard="0"
     inkscape:deskcolor="#d1d1d1"
     inkscape:document-units="mm"
     inkscape:zoom="0.93773442"
     inkscape:cx="568.39121"
     inkscape:cy="397.23401"
     inkscape:window-width="1755"
     inkscape:window-height="1028"
     inkscape:window-x="20"
     inkscape:window-y="20"
     inkscape:window-maximized="0"
     inkscape:current-layer="layer1"
     inkscape:export-bgcolor="#00000000"
     showguides="true" /><defs
     id="defs1" /><g
     inkscape:label="Layer 1"
     inkscape:groupmode="layer"
     id="layer1"
     style="display:inline"><rect
       style="display:inline;fill:#1a1b26;fill-opacity:1;stroke-width:0.252969"
       id="rect4"
       width="297"
       height="210"
       x="0"
       y="5.6033585e-08"
       inkscape:label="bg" /><g
       id="g4"
       transform="matrix(1.1006658,0,0,1.1006658,-89.575016,-13.250688)"><path
         style="display:inline;opacity:1;fill:#c0caf5;fill-opacity:1;stroke:none;stroke-width:0.641747"
         d="m 212.56589,158.41802 c 2.25018,3.47316 2.26469,8.69769 -0.29787,12.01415 -1.7363,2.24713 -4.63059,3.59616 -7.44191,3.75631 -3.05351,0.17393 -6.02683,-0.6439 -8.2677,-2.7918 -1.24673,-1.195 -2.23145,-3.07772 -3.79073,-3.9142 -2.17428,-1.16641 -4.9344,0.004 -5.62978,2.39284 -0.96148,3.30247 2.80341,6.87178 5.12352,8.66198 4.99611,3.85502 12.26477,4.801 18.16794,2.67656 1.75595,-0.63193 4.70257,-1.96804 5.88868,-3.47488 0.9637,-4.49591 2.42375,-8.86083 3.89749,-13.21011 0.52103,-1.52855 0.8096,-2.37915 1.25027,-4.01441 -0.3299,-1.23597 -1.40152,-3.31599 -2.20022,-4.30101 -4.24433,-5.2344 -11.49123,-5.55432 -17.36115,-2.92029 4.88233,0.361 8.16686,1.27445 10.66146,5.12486 z m -32.69974,-6.11627 c -1.81265,-0.009 -3.62087,-0.14911 -5.43346,-0.1642 -1.93007,-0.0161 -4.39052,-0.27119 -5.88561,1.19983 -1.98898,1.95695 -1.65219,6.33401 2.57776,6.85355 4.15791,-1.30333 13.98809,-4.13767 18.75258,-5.38839 -2.66916,-2.75945 -6.50198,-2.48266 -10.01127,-2.50079 z m 78.95496,2.13166 c 2.19388,0.66613 4.16459,1.87717 5.63636,3.6504 2.71428,3.27023 3.07828,8.67034 0.66635,12.21629 -1.40053,2.05901 -3.56647,3.42055 -5.96311,4.01236 -3.05125,0.75346 -6.86177,0.40031 -9.42679,-1.49213 -0.94508,-0.69725 -1.65037,-1.26372 -2.38865,-2.2385 -0.77105,-1.01802 -1.7851,-1.70122 -3.26675,-1.72833 -2.87246,-0.0526 -4.90394,2.95554 -3.61331,5.69312 1.44249,3.05969 4.94267,5.49714 7.99837,6.67161 8.52151,3.27528 19.76315,0.98697 24.19542,-7.6902 3.41853,-6.69252 3.02922,-17.23532 -5.00851,-20.40764 -1.23856,-0.48884 -2.57843,-0.73079 -3.9053,-0.79175 -3.04379,-0.13982 -6.04568,0.16274 -8.8421,1.32267 1.37529,0.0991 2.6328,0.39187 3.91802,0.7821 z m -26.31072,6.20011 c 1.76533,-1.14474 2.99546,-1.92283 4.29231,-2.5829 2.06629,-1.05171 4.03547,-2.05259 5.84878,-2.60499 -1.17685,-1.17684 -2.71058,-1.90962 -4.20584,-2.33676 -2.44772,-0.69923 -5.12444,-0.48751 -7.64081,-0.46569 -2.68537,0.0233 -3.79861,-0.002 -4.27888,0.24206 -0.42252,0.21462 -1.61413,0.49914 -2.16099,2.14139 -2.01382,6.04753 -7.04703,19.73509 -7.24919,22.45362 -0.21048,2.83023 4.20697,5.37896 7.27519,2.25604 -0.79462,-1.39006 -1.02508,-3.00645 -1.00675,-4.7499 0.0259,-2.46634 0.74308,-4.21481 1.86889,-6.38243 0.7379,-1.42073 1.68942,-2.70996 2.7533,-3.90278 0.76869,-0.86186 1.53906,-1.80639 2.43711,-2.48736 0.14659,-0.62475 0.25627,-1.08612 0.41348,-1.5993 0.60938,-0.0433 0.88314,6.4e-4 1.6534,0.019 z m -39.7398,5.7631 0.67918,-2.54693 c -2.11594,0.36157 -4.21439,0.86493 -6.28244,1.43866 -1.12575,0.31232 -2.5669,0.7593 -3.56934,1.20012 -1.16384,1.61099 -2.44269,3.04501 -4.07245,4.39572 -2.66998,2.21282 -5.86947,4.28568 -9.33777,4.85303 -1.2442,0.20352 -4.43975,0.27142 -3.63224,-1.86495 0.0866,-0.22911 0.24509,-0.44149 0.39659,-0.63091 1.8234,-2.28 5.20836,-3.46933 7.82013,-4.55672 6.56465,-2.73314 13.51119,-4.89684 20.54527,-5.99608 2.37449,-0.37107 4.89795,-0.64533 7.31164,-0.64025 1.64474,0.003 2.55441,0.55595 2.71629,1.69141 0.14589,1.02334 -0.96866,2.2413 -2.15627,1.70112 -0.74818,-0.3403 -1.16178,-1.51538 -0.74024,-2.44013 0,0 -2.46984,-0.004 -3.6965,0.0902 -1.54942,0.11986 -4.62348,0.589 -4.62348,0.589 0.0341,1.60612 0.26381,3.13505 1.00047,4.5843 3.05742,6.01491 12.1901,6.97267 16.38561,1.65593 1.47945,-1.87484 1.87599,-4.07814 1.77965,-6.41002 -0.0557,-1.34766 -0.34617,-2.69058 -0.94545,-3.90471 -2.53305,-5.13189 -9.09404,-5.7823 -14.14519,-5.34634 -5.06282,0.43695 -9.89668,1.79963 -14.77222,3.16235 -4.66761,1.30461 -9.33089,2.58375 -13.75344,4.59243 -3.76622,1.71057 -7.74487,3.75537 -10.13267,7.2695 -3.44478,5.06967 -1.23914,11.88306 4.52951,13.99926 3.76171,1.37998 8.04104,0.6293 11.7158,-0.68132 2.87823,-1.02654 5.5826,-2.71165 7.97977,-4.58779 0.986,-0.77169 2.89155,-2.36897 3.55617,-3.45214 -0.48784,-1.00243 -1.35465,-2.44865 -1.26431,-3.88512 0.20956,-3.33238 3.44257,-5.02693 6.70793,-4.2796 m 52.97624,-1.52816 c -3.52589,1.20395 -7.51718,3.15222 -10.59361,6.53289 -0.33531,0.95702 -0.58539,1.722 -1.15646,2.86113 -0.3548,0.70773 -0.89632,1.58052 -1.3211,1.50025 -0.57794,-0.1092 0.16762,-2.32428 0.27764,-2.58788 0.68066,-1.63086 1.98329,-2.81552 3.28792,-3.97491 4.17314,-3.70859 10.13485,-5.93575 15.61825,-6.71429 1.47111,-0.20888 3.59021,-0.51301 4.95101,0.21449 0.80052,0.42796 1.5673,1.30924 0.93691,2.59171 -0.46343,0.9428 -2.19365,0.9449 -2.72305,0.10788 -0.34878,-0.55144 -0.52589,-1.04655 -0.10855,-2.22923 -2.87397,0.0254 -5.55917,0.60548 -8.31999,1.35837 0.11108,1.60913 0.42621,3.17028 1.24081,4.58389 3.05923,5.3088 11.19605,6.40693 15.49333,1.98269 2.36886,-2.43884 2.95924,-6.05039 2.13085,-9.2833 -1.45996,-5.69772 -7.70396,-7.43209 -12.92214,-7.28341 -7.00664,0.19963 -13.84727,2.86038 -19.52649,6.88014 -3.10768,2.19959 -5.90911,4.84325 -7.47049,8.38366 -1.13169,2.56607 -1.7078,5.59444 -0.80271,8.31998 1.48306,4.46604 6.8513,6.72017 11.15972,5.11689 2.05403,-0.76437 4.02728,-2.38522 5.58141,-5.75298 -1.40281,-1.43338 -2.00142,-2.36402 -2.29841,-3.7786 -0.6541,-3.11568 1.89881,-6.13252 5.81253,-5.68479 z m -71.82356,10.07454 0.0566,0.0566 c -0.0838,0.0279 -0.18791,-0.0566 -0.0566,-0.0566 z"
         id="path1"
         sodipodi:nodetypes="sssssssscscscsscsccssssssssssssscscscssssscssscccccscssscssssscscssssssssssscscccssssssssccsssssssscsccccc" /><path
         style="display:inline;opacity:1;fill:#c0caf5;fill-opacity:1;stroke:none;stroke-width:1.12005"
         d="m 190.75966,128.43895 c 3.41685,-1.39214 6.50193,-3.39725 9.50184,-5.52164 l 3.12798,-9.80186 2.27862,0.13899 -1.75268,6.6364 c -0.5333,2.01927 -5.42595,5.20283 -7.15757,6.18313 -3.48725,1.97419 -7.32537,4.16292 -9.91723,4.13351 l -14.23012,-0.16137 0.76072,-2.03448 10.29157,-0.0142 c 1.65823,-0.002 4.76192,-1.26231 4.75894,-4.60666 -0.003,-3.34433 -2.37351,-4.95141 -4.72404,-4.9524 l -17.34827,-0.008 -8.4435,24.36424 9.06105,-0.0328 c 0.98623,-0.003 1.22009,-0.13788 1.62083,-1.28445 l 1.40555,-4.02128 17.40136,0.0493 c 4.22568,0.012 8.87445,-2.47214 14.40824,-5.84609 4.31732,-2.63836 8.34513,-5.52634 9.88501,-11.86413 l 3.36693,-13.85752 -17.02797,-0.0464 m 42.42753,22.68511 c 3.60531,-1.63794 6.88199,-3.65847 9.61686,-5.52165 l 3.35899,-9.59385 2.20866,0.069 -1.99484,6.5935 c -0.67054,2.21634 -4.07257,4.13912 -6.01154,5.32404 -3.02415,1.8481 -6.93738,4.69588 -10.52766,4.71058 l -14.47507,0.0594 0.79379,-2.0033 10.60759,-0.0216 c 1.39011,-0.002 4.18687,-1.73136 4.13835,-4.61574 -0.0485,-2.88439 -1.94124,-5.05955 -4.5913,-5.07446 l -16.86689,-0.0949 -4.64594,11.78094 -6.94952,0.0906 c -1.06683,0.76543 -3.80772,2.61164 -8.14442,4.90046 -3.76927,1.98933 -4.09738,1.81081 -5.14739,2.33812 l 45.37906,0.0765 c 5.0574,0.009 11.62295,-3.69374 16.22046,-7.03563 3.26573,-2.37383 6.57988,-4.59896 8.02014,-10.3375 l 3.56865,-14.21897 -17.05775,0.004 -7.50023,22.56971 m 1.08582,8.99371 28.81356,0.17044 c 1.17971,0.007 1.68098,-0.28424 2.06036,-1.27601 l 2.28172,-5.96482 -19.57882,-0.23007 c -3.73362,2.59714 -8.6906,5.87182 -13.57682,7.30046 z"
         id="path2"
         sodipodi:nodetypes="ccccsssccszsccsscsssccccccsssccszscccscsssccccssccc" /><path
         style="display:inline;opacity:1;fill:#c0caf5;fill-opacity:1;stroke:none;stroke-width:0.52193"
         d="m 157.90584,92.614525 3.15314,4.257894 33.19937,-24.299354 0.13809,8.2835 c 0.0436,2.6182 2.80919,3.2011 4.75248,1.79816 l 13.77327,-9.94356 -0.009,6.50824 -17.69905,13.53321 3.26823,4.257904 37.05993,-27.180914 8.78728,0.1375 -30.35767,22.92361 3.17616,4.119804 33.08911,-24.220664 -0.0126,7.99764 c -0.004,2.33401 2.83503,3.35676 4.3714,2.27707 l 14.31435,-10.05939 -0.007,6.51723 -17.92199,13.23021 3.29124,4.211864 19.38291,-13.997304 c 0.66536,-0.48048 1.04771,-1.56023 1.04039,-2.34644 l -0.12348,-13.27741 -3.54283,-2.94911 -15.09987,10.68237 v -6.21423 c 0.0801,-4.78867 -2.21807,-4.54039 -6.21423,-4.5571 l -15.05508,-0.063 c -1.10434,-0.005 -1.58813,0.43048 -2.47919,1.07883 l -13.53687,9.84965 -0.046,-7.96555 -3.54441,-2.87696 -15.12856,10.82392 -0.0449,-7.95933 c -0.0162,-2.82915 -2.29268,-3.02793 -3.96031,-3.0257 l -17.31408,-0.0225 -0.047,5.49246 10.08713,0.0711 z"
         id="path3"
         sodipodi:nodetypes="cccsscccccccccssccccsscccssssccccsscccc" /><path
         style="display:inline;opacity:1;fill:#c0caf5;fill-opacity:1;stroke:none;stroke-width:0.529374"
         d="m 161.51132,38.737023 19.54817,0.08519 3.38894,7.490929 c 1.01184,2.236576 3.75332,2.160706 5.41827,1.320347 1.66495,-0.84036 2.01037,-3.363282 1.52567,-4.508387 l -5.11161,-12.192769 -24.95122,0.126008 c -1.67878,0.0085 -3.42362,1.752956 -3.42362,3.685492 0,1.932537 1.7772,3.985225 3.6054,3.99319 z m 39.90741,1.751843 -3.39527,-7.323633 c -0.7128,-1.537506 -2.97324,-2.924429 -4.97595,-2.032744 -2.00271,0.891685 -2.98374,2.972403 -2.1935,4.833242 l 5.27112,12.188714 15.73505,0.180286 2.08798,4.704671 c 0.85714,1.931316 3.40232,2.773146 5.13721,1.848086 1.73491,-0.925052 2.9508,-2.790937 1.90252,-5.173051 l -7.03183,-15.979139 c -0.68204,-1.549841 -2.30339,-3.319127 -4.65231,-2.642929 -2.3489,0.676198 -3.95231,2.590793 -2.85722,5.063997 l 1.9287,4.355843 z m 32.86644,-1.678275 6.49813,14.406868 c 0.76344,1.692619 3.47892,2.581439 5.28031,1.607739 1.80138,-0.973706 2.60525,-3.178924 1.77367,-5.045272 l -8.32715,-18.688877 -17.81738,-0.09429 c -3.77701,-0.01999 -4.99858,3.13063 -4.10782,5.136922 l 4.57906,10.313572 c 0.72499,1.63292 3.64492,2.314489 5.21463,1.315943 1.56972,-0.998546 2.51059,-2.891158 1.69013,-4.77544 l -1.86404,-4.281003 z m 20.30602,1.744325 -3.27726,-7.412112 c -0.86561,-1.957739 -3.13007,-2.796553 -5.28122,-1.785822 -2.15115,1.010731 -2.59666,3.231428 -1.5675,5.564541 l 4.97298,11.30995 15.69523,0.05431 2.42491,5.223803 c 0.76363,1.645042 3.61403,2.119222 5.08421,1.302022 1.47019,-0.817205 2.60938,-2.865374 1.76557,-4.78074 l -7.31378,-16.601787 c -0.80465,-1.82651 -2.97829,-3.146636 -5.24235,-2.137213 -2.26407,1.009423 -2.75688,3.333987 -1.84758,5.308128 l 1.77866,3.861612 z"
         id="path4"
         sodipodi:nodetypes="scszscszscszsccszsszscccszscssszscccszsccszsszscc" /></g></g></svg>
